# xmcd CD database file
#
# Track frame offsets:
#	225
#	10797
#	20949
#	40117
#	58731
#	72160
#	85144
#	99845
#	116584
#	129439
#	147712
#	165201
#	174892
#	187483
#	211453
#	227101
#
# Disc length: 3178 seconds
#
# Revision: 0
# Processed by: cddbd v1.4PL0 Copyright (c) Steve Scherf et al.
# Submitted via: CDex 1.40Release
#
DISCID=dd0c6710
DTITLE=Hammie Nixon - tappin' that thing
DYEAR=1900
DGENRE=Blues
TTITLE0=it's a good place to go
TTITLE1=bottle up and go
TTITLE2=kansas city blues
TTITLE3=you're gonna miss me when i'm gone (oh, baby)
TTITLE4=skinny mama
TTITLE5=good morning, school girl
TTITLE6=sugar mama blues
TTITLE7=tappin' that thing
TTITLE8=the judge, he pleaded (viola lee blues)
TTITLE9=my baby left town
TTITLE10=brownsville blues (the girl i love, she got long curly hair)
TTITLE11=you're gonna look like a monkey when you get old
TTITLE12=hammie's windy blues
TTITLE13=corrine, corrina
TTITLE14=jesus on the main line
TTITLE15=holy spirit, don't leave me
EXTD=ID3G: 0
EXTT0=
EXTT1=
EXTT2=
EXTT3=
EXTT4=
EXTT5=
EXTT6=
EXTT7=
EXTT8=
EXTT9=
EXTT10=
EXTT11=
EXTT12=
EXTT13=
EXTT14=
EXTT15=
PLAYORDER=
